<?xml version="1.0" encoding="UTF-8"?>
<svg id="Layer_1" data-name="Layer 1" xmlns="http://www.w3.org/2000/svg" viewBox="0 0 1080 1080">
  <defs>
    <style>
      .cls-1 {
        fill: #fff;
      }
    </style>
  </defs>
  <path class="cls-1" d="M960.6,365.18c-.23-46.17-25.52-88.67-65.99-110.93l-293.18-161.13c-19.02-10.44-40.13-15.65-61.25-15.65-22.59,0-45.17,5.97-65.12,17.81l-295.08,175.55c-38.6,22.95-62.45,65.09-62.22,110.02l1.63,334.51c.23,46.14,25.52,88.64,65.99,110.93l293.18,161.1c40.87,22.49,89.51,19.82,136.91-7.47l295.08-175.55c30.63-19.22,51.88-62.25,51.68-104.69l-1.63-334.51ZM849.24,753.67l-224.19,143.42c-9.07,5.37-19.08,8.07-29.06,8.07s-19.18-2.47-27.99-7.44c-17.95-10.14-28.72-28.52-28.82-49.17l-.43-231.53c-.2-36.93,19.42-71.59,51.18-90.51l224.12-145.42c17.78-10.58,39.1-10.81,57.05-.63,17.95,10.14,28.72,28.52,28.82,49.17l.47,233.59c.17,36.9-19.42,71.56-51.14,90.44Z"/>
</svg>